ISO-10303-21;
HEADER;
FILE_DESCRIPTION(('STEP AP242'),'1');
FILE_NAME('PROBE_FED.stp','2026-04-23T11:48:55',('26098'),(' '),'Spatial InterOp 3D','CST ACIS InterOp Converter 2025',' ');
FILE_SCHEMA(('AP242_MANAGED_MODEL_BASED_3D_ENGINEERING_MIM_LF  {1 0 10303 442 1 1 4}'));
ENDSEC;
DATA;
#1=MECHANICAL_DESIGN_GEOMETRIC_PRESENTATION_REPRESENTATION(' ',(#16,#17,#18,#19,#20,#21),#12);
#2=PRODUCT_DEFINITION_CONTEXT('',#22,'design');
#3=APPLICATION_PROTOCOL_DEFINITION('INTERNATIONAL STANDARD','ap242_managed_model_based_3d_engineering',2014,#22);
#4=PRODUCT_CATEGORY_RELATIONSHIP('NONE','NONE',#23,#24);
#5=SHAPE_DEFINITION_REPRESENTATION(#25,#26);
#6=SHAPE_DEFINITION_REPRESENTATION(#25,#27);
#7=SHAPE_DEFINITION_REPRESENTATION(#25,#28);
#8=SHAPE_DEFINITION_REPRESENTATION(#25,#29);
#9=SHAPE_DEFINITION_REPRESENTATION(#25,#30);
#10=SHAPE_DEFINITION_REPRESENTATION(#25,#31);
#11=SHAPE_DEFINITION_REPRESENTATION(#25,#32);
#12= (GEOMETRIC_REPRESENTATION_CONTEXT(3)GLOBAL_UNCERTAINTY_ASSIGNED_CONTEXT((#35))GLOBAL_UNIT_ASSIGNED_CONTEXT((#37,#38,#39))REPRESENTATION_CONTEXT('NONE','WORKSPACE'));
#16=STYLED_ITEM('',(#41),#42);
#17=STYLED_ITEM('',(#43),#44);
#18=STYLED_ITEM('',(#45),#46);
#19=STYLED_ITEM('',(#47),#48);
#20=STYLED_ITEM('',(#49),#50);
#21=STYLED_ITEM('',(#51),#52);
#22=APPLICATION_CONTEXT('managed model based 3d engineering');
#23=PRODUCT_CATEGORY('part','NONE');
#24=PRODUCT_RELATED_PRODUCT_CATEGORY('detail',' ',(#53));
#25=PRODUCT_DEFINITION_SHAPE('NONE','NONE',#54);
#26=ADVANCED_BREP_SHAPE_REPRESENTATION('component1|PATCH',(#42,#55),#12);
#27=ADVANCED_BREP_SHAPE_REPRESENTATION('component1|SUB',(#44,#56),#12);
#28=ADVANCED_BREP_SHAPE_REPRESENTATION('component1|GROUND',(#46,#57),#12);
#29=ADVANCED_BREP_SHAPE_REPRESENTATION('component1|INNER',(#48,#58),#12);
#30=ADVANCED_BREP_SHAPE_REPRESENTATION('component1|DIE',(#50,#59),#12);
#31=ADVANCED_BREP_SHAPE_REPRESENTATION('component1|OUTER',(#52,#60),#12);
#32=MANIFOLD_SURFACE_SHAPE_REPRESENTATION('Ports|port1',(#61,#62),#12);
#35=UNCERTAINTY_MEASURE_WITH_UNIT(LENGTH_MEASURE(1.0E-06),#37,'','');
#37= (CONVERSION_BASED_UNIT('MILLIMETRE',#65)LENGTH_UNIT()NAMED_UNIT(#68));
#38= (NAMED_UNIT(#70)PLANE_ANGLE_UNIT()SI_UNIT($,.RADIAN.));
#39= (NAMED_UNIT(#70)SOLID_ANGLE_UNIT()SI_UNIT($,.STERADIAN.));
#41=PRESENTATION_STYLE_ASSIGNMENT((#76));
#42=MANIFOLD_SOLID_BREP('component1|PATCH',#77);
#43=PRESENTATION_STYLE_ASSIGNMENT((#78));
#44=MANIFOLD_SOLID_BREP('component1|SUB',#79);
#45=PRESENTATION_STYLE_ASSIGNMENT((#80));
#46=MANIFOLD_SOLID_BREP('component1|GROUND',#81);
#47=PRESENTATION_STYLE_ASSIGNMENT((#82));
#48=MANIFOLD_SOLID_BREP('component1|INNER',#83);
#49=PRESENTATION_STYLE_ASSIGNMENT((#84));
#50=MANIFOLD_SOLID_BREP('component1|DIE',#85);
#51=PRESENTATION_STYLE_ASSIGNMENT((#86));
#52=MANIFOLD_SOLID_BREP('component1|OUTER',#87);
#53=PRODUCT('component1|PATCH','','PART--DESC',(#88));
#54=PRODUCT_DEFINITION('','NONE',#89,#2);
#55=AXIS2_PLACEMENT_3D('',#90,#91,#92);
#56=AXIS2_PLACEMENT_3D('',#93,#94,#95);
#57=AXIS2_PLACEMENT_3D('',#96,#97,#98);
#58=AXIS2_PLACEMENT_3D('',#99,#100,#101);
#59=AXIS2_PLACEMENT_3D('',#102,#103,#104);
#60=AXIS2_PLACEMENT_3D('',#105,#106,#107);
#61=SHELL_BASED_SURFACE_MODEL('Ports|port1',(#108));
#62=AXIS2_PLACEMENT_3D('',#109,#110,#111);
#65=LENGTH_MEASURE_WITH_UNIT(LENGTH_MEASURE(1.0),#112);
#68=DIMENSIONAL_EXPONENTS(1.0,0.0,0.0,0.0,0.0,0.0,0.0);
#70=DIMENSIONAL_EXPONENTS(0.0,0.0,0.0,0.0,0.0,0.0,0.0);
#76=SURFACE_STYLE_USAGE(.BOTH.,#113);
#77=CLOSED_SHELL('',(#114,#115,#116,#117,#118,#119));
#78=SURFACE_STYLE_USAGE(.BOTH.,#120);
#79=CLOSED_SHELL('',(#121,#122,#123,#124,#125,#126,#127,#128));
#80=SURFACE_STYLE_USAGE(.BOTH.,#129);
#81=CLOSED_SHELL('',(#130,#131,#132,#133,#134,#135,#136,#137));
#82=SURFACE_STYLE_USAGE(.BOTH.,#138);
#83=CLOSED_SHELL('',(#139,#140,#141,#142));
#84=SURFACE_STYLE_USAGE(.BOTH.,#143);
#85=CLOSED_SHELL('',(#144,#145,#146,#147,#148,#149));
#86=SURFACE_STYLE_USAGE(.BOTH.,#150);
#87=CLOSED_SHELL('',(#151,#152,#153,#154,#155,#156));
#88=PRODUCT_CONTEXT('',#22,'mechanical');
#89=PRODUCT_DEFINITION_FORMATION_WITH_SPECIFIED_SOURCE(' ','NONE',#53,.NOT_KNOWN.);
#90=CARTESIAN_POINT('',(0.0,0.0,0.0));
#91=DIRECTION('',(0.0,0.0,1.0));
#92=DIRECTION('',(1.0,0.0,0.0));
#93=CARTESIAN_POINT('',(0.0,0.0,0.0));
#94=DIRECTION('',(0.0,0.0,1.0));
#95=DIRECTION('',(1.0,0.0,0.0));
#96=CARTESIAN_POINT('',(0.0,0.0,0.0));
#97=DIRECTION('',(0.0,0.0,1.0));
#98=DIRECTION('',(1.0,0.0,0.0));
#99=CARTESIAN_POINT('',(0.0,0.0,0.0));
#100=DIRECTION('',(0.0,0.0,1.0));
#101=DIRECTION('',(1.0,0.0,0.0));
#102=CARTESIAN_POINT('',(0.0,0.0,0.0));
#103=DIRECTION('',(0.0,0.0,1.0));
#104=DIRECTION('',(1.0,0.0,0.0));
#105=CARTESIAN_POINT('',(0.0,0.0,0.0));
#106=DIRECTION('',(0.0,0.0,1.0));
#107=DIRECTION('',(1.0,0.0,0.0));
#108=CLOSED_SHELL('',(#157));
#109=CARTESIAN_POINT('',(0.0,0.0,0.0));
#110=DIRECTION('',(0.0,0.0,1.0));
#111=DIRECTION('',(1.0,0.0,0.0));
#112= (NAMED_UNIT(#68)LENGTH_UNIT()SI_UNIT(.MILLI.,.METRE.));
#113=SURFACE_SIDE_STYLE('',(#159));
#114=ADVANCED_FACE('',(#160),#161,.T.);
#115=ADVANCED_FACE('',(#162),#163,.F.);
#116=ADVANCED_FACE('',(#164),#165,.F.);
#117=ADVANCED_FACE('',(#166),#167,.F.);
#118=ADVANCED_FACE('',(#168),#169,.F.);
#119=ADVANCED_FACE('',(#170),#171,.F.);
#120=SURFACE_SIDE_STYLE('',(#172));
#121=ADVANCED_FACE('',(#173),#174,.F.);
#122=ADVANCED_FACE('',(#175),#176,.F.);
#123=ADVANCED_FACE('',(#177,#178),#179,.T.);
#124=ADVANCED_FACE('',(#180,#181),#182,.F.);
#125=ADVANCED_FACE('',(#183),#184,.F.);
#126=ADVANCED_FACE('',(#185),#186,.F.);
#127=ADVANCED_FACE('',(#187),#188,.F.);
#128=ADVANCED_FACE('',(#189),#190,.F.);
#129=SURFACE_SIDE_STYLE('',(#191));
#130=ADVANCED_FACE('',(#192),#193,.F.);
#131=ADVANCED_FACE('',(#194),#195,.F.);
#132=ADVANCED_FACE('',(#196),#197,.T.);
#133=ADVANCED_FACE('',(#198),#199,.T.);
#134=ADVANCED_FACE('',(#200),#201,.T.);
#135=ADVANCED_FACE('',(#202),#203,.T.);
#136=ADVANCED_FACE('',(#204,#205),#206,.F.);
#137=ADVANCED_FACE('',(#207,#208),#209,.T.);
#138=SURFACE_SIDE_STYLE('',(#210));
#139=ADVANCED_FACE('',(#211),#212,.T.);
#140=ADVANCED_FACE('',(#213),#214,.T.);
#141=ADVANCED_FACE('',(#215),#216,.T.);
#142=ADVANCED_FACE('',(#217),#218,.T.);
#143=SURFACE_SIDE_STYLE('',(#219));
#144=ADVANCED_FACE('',(#220),#221,.F.);
#145=ADVANCED_FACE('',(#222),#223,.T.);
#146=ADVANCED_FACE('',(#224,#225),#226,.T.);
#147=ADVANCED_FACE('',(#227),#228,.T.);
#148=ADVANCED_FACE('',(#229,#230),#231,.T.);
#149=ADVANCED_FACE('',(#232),#233,.F.);
#150=SURFACE_SIDE_STYLE('',(#234));
#151=ADVANCED_FACE('',(#235),#236,.F.);
#152=ADVANCED_FACE('',(#237),#238,.T.);
#153=ADVANCED_FACE('',(#239,#240),#241,.T.);
#154=ADVANCED_FACE('',(#242),#243,.T.);
#155=ADVANCED_FACE('',(#244,#245),#246,.T.);
#156=ADVANCED_FACE('',(#247),#248,.F.);
#157=FACE_SURFACE('',(#249),#250,.T.);
#159=SURFACE_STYLE_FILL_AREA(#251);
#160=FACE_OUTER_BOUND('',#252,.T.);
#161=PLANE('',#253);
#162=FACE_OUTER_BOUND('',#254,.T.);
#163=PLANE('',#255);
#164=FACE_OUTER_BOUND('',#256,.T.);
#165=PLANE('',#257);
#166=FACE_OUTER_BOUND('',#258,.T.);
#167=PLANE('',#259);
#168=FACE_OUTER_BOUND('',#260,.T.);
#169=PLANE('',#261);
#170=FACE_OUTER_BOUND('',#262,.T.);
#171=PLANE('',#263);
#172=SURFACE_STYLE_FILL_AREA(#264);
#173=FACE_OUTER_BOUND('',#265,.T.);
#174=CYLINDRICAL_SURFACE('',#266,1.45);
#175=FACE_OUTER_BOUND('',#267,.T.);
#176=CYLINDRICAL_SURFACE('',#268,1.45);
#177=FACE_BOUND('',#269,.T.);
#178=FACE_OUTER_BOUND('',#270,.T.);
#179=PLANE('',#271);
#180=FACE_BOUND('',#272,.T.);
#181=FACE_OUTER_BOUND('',#273,.T.);
#182=PLANE('',#274);
#183=FACE_OUTER_BOUND('',#275,.T.);
#184=PLANE('',#276);
#185=FACE_OUTER_BOUND('',#277,.T.);
#186=PLANE('',#278);
#187=FACE_OUTER_BOUND('',#279,.T.);
#188=PLANE('',#280);
#189=FACE_OUTER_BOUND('',#281,.T.);
#190=PLANE('',#282);
#191=SURFACE_STYLE_FILL_AREA(#283);
#192=FACE_OUTER_BOUND('',#284,.T.);
#193=CYLINDRICAL_SURFACE('',#285,1.45);
#194=FACE_OUTER_BOUND('',#286,.T.);
#195=CYLINDRICAL_SURFACE('',#287,1.45);
#196=FACE_OUTER_BOUND('',#288,.T.);
#197=PLANE('',#289);
#198=FACE_OUTER_BOUND('',#290,.T.);
#199=PLANE('',#291);
#200=FACE_OUTER_BOUND('',#292,.T.);
#201=PLANE('',#293);
#202=FACE_OUTER_BOUND('',#294,.T.);
#203=PLANE('',#295);
#204=FACE_BOUND('',#296,.T.);
#205=FACE_OUTER_BOUND('',#297,.T.);
#206=PLANE('',#298);
#207=FACE_BOUND('',#299,.T.);
#208=FACE_OUTER_BOUND('',#300,.T.);
#209=PLANE('',#301);
#210=SURFACE_STYLE_FILL_AREA(#302);
#211=FACE_OUTER_BOUND('',#303,.T.);
#212=CYLINDRICAL_SURFACE('',#304,0.45);
#213=FACE_OUTER_BOUND('',#305,.T.);
#214=CYLINDRICAL_SURFACE('',#306,0.45);
#215=FACE_OUTER_BOUND('',#307,.T.);
#216=PLANE('',#308);
#217=FACE_OUTER_BOUND('',#309,.T.);
#218=PLANE('',#310);
#219=SURFACE_STYLE_FILL_AREA(#311);
#220=FACE_OUTER_BOUND('',#312,.T.);
#221=CYLINDRICAL_SURFACE('',#313,0.45);
#222=FACE_OUTER_BOUND('',#314,.T.);
#223=CYLINDRICAL_SURFACE('',#315,1.45);
#224=FACE_OUTER_BOUND('',#316,.T.);
#225=FACE_BOUND('',#317,.T.);
#226=PLANE('',#318);
#227=FACE_OUTER_BOUND('',#319,.T.);
#228=CYLINDRICAL_SURFACE('',#320,1.45);
#229=FACE_BOUND('',#321,.T.);
#230=FACE_OUTER_BOUND('',#322,.T.);
#231=PLANE('',#323);
#232=FACE_OUTER_BOUND('',#324,.T.);
#233=CYLINDRICAL_SURFACE('',#325,0.45);
#234=SURFACE_STYLE_FILL_AREA(#326);
#235=FACE_OUTER_BOUND('',#327,.T.);
#236=CYLINDRICAL_SURFACE('',#328,1.45);
#237=FACE_OUTER_BOUND('',#329,.T.);
#238=CYLINDRICAL_SURFACE('',#330,1.55);
#239=FACE_OUTER_BOUND('',#331,.T.);
#240=FACE_BOUND('',#332,.T.);
#241=PLANE('',#333);
#242=FACE_OUTER_BOUND('',#334,.T.);
#243=CYLINDRICAL_SURFACE('',#335,1.55);
#244=FACE_BOUND('',#336,.T.);
#245=FACE_OUTER_BOUND('',#337,.T.);
#246=PLANE('',#338);
#247=FACE_OUTER_BOUND('',#339,.T.);
#248=CYLINDRICAL_SURFACE('',#340,1.45);
#249=FACE_BOUND('',#341,.T.);
#250=PLANE('',#342);
#251=FILL_AREA_STYLE('',(#343));
#252=EDGE_LOOP('',(#344,#345,#346,#347));
#253=AXIS2_PLACEMENT_3D('',#348,#349,#350);
#254=EDGE_LOOP('',(#351,#352,#353,#354));
#255=AXIS2_PLACEMENT_3D('',#355,#356,#357);
#256=EDGE_LOOP('',(#358,#359,#360,#361));
#257=AXIS2_PLACEMENT_3D('',#362,#363,#364);
#258=EDGE_LOOP('',(#365,#366,#367,#368));
#259=AXIS2_PLACEMENT_3D('',#369,#370,#371);
#260=EDGE_LOOP('',(#372,#373,#374,#375));
#261=AXIS2_PLACEMENT_3D('',#376,#377,#378);
#262=EDGE_LOOP('',(#379,#380,#381,#382));
#263=AXIS2_PLACEMENT_3D('',#383,#384,#385);
#264=FILL_AREA_STYLE('',(#386));
#265=EDGE_LOOP('',(#387,#388,#389,#390));
#266=AXIS2_PLACEMENT_3D('',#391,#392,#393);
#267=EDGE_LOOP('',(#394,#395,#396,#397));
#268=AXIS2_PLACEMENT_3D('',#398,#399,#400);
#269=EDGE_LOOP('',(#401,#402));
#270=EDGE_LOOP('',(#403,#404,#405,#406));
#271=AXIS2_PLACEMENT_3D('',#407,#408,#409);
#272=EDGE_LOOP('',(#410,#411));
#273=EDGE_LOOP('',(#412,#413,#414,#415));
#274=AXIS2_PLACEMENT_3D('',#416,#417,#418);
#275=EDGE_LOOP('',(#419,#420,#421,#422));
#276=AXIS2_PLACEMENT_3D('',#423,#424,#425);
#277=EDGE_LOOP('',(#426,#427,#428,#429));
#278=AXIS2_PLACEMENT_3D('',#430,#431,#432);
#279=EDGE_LOOP('',(#433,#434,#435,#436));
#280=AXIS2_PLACEMENT_3D('',#437,#438,#439);
#281=EDGE_LOOP('',(#440,#441,#442,#443));
#282=AXIS2_PLACEMENT_3D('',#444,#445,#446);
#283=FILL_AREA_STYLE('',(#447));
#284=EDGE_LOOP('',(#448,#449,#450,#451));
#285=AXIS2_PLACEMENT_3D('',#452,#453,#454);
#286=EDGE_LOOP('',(#455,#456,#457,#458));
#287=AXIS2_PLACEMENT_3D('',#459,#460,#461);
#288=EDGE_LOOP('',(#462,#463,#464,#465));
#289=AXIS2_PLACEMENT_3D('',#466,#467,#468);
#290=EDGE_LOOP('',(#469,#470,#471,#472));
#291=AXIS2_PLACEMENT_3D('',#473,#474,#475);
#292=EDGE_LOOP('',(#476,#477,#478,#479));
#293=AXIS2_PLACEMENT_3D('',#480,#481,#482);
#294=EDGE_LOOP('',(#483,#484,#485,#486));
#295=AXIS2_PLACEMENT_3D('',#487,#488,#489);
#296=EDGE_LOOP('',(#490,#491));
#297=EDGE_LOOP('',(#492,#493,#494,#495));
#298=AXIS2_PLACEMENT_3D('',#496,#497,#498);
#299=EDGE_LOOP('',(#499,#500));
#300=EDGE_LOOP('',(#501,#502,#503,#504));
#301=AXIS2_PLACEMENT_3D('',#505,#506,#507);
#302=FILL_AREA_STYLE('',(#508));
#303=EDGE_LOOP('',(#509,#510,#511,#512));
#304=AXIS2_PLACEMENT_3D('',#513,#514,#515);
#305=EDGE_LOOP('',(#516,#517,#518,#519));
#306=AXIS2_PLACEMENT_3D('',#520,#521,#522);
#307=EDGE_LOOP('',(#523,#524));
#308=AXIS2_PLACEMENT_3D('',#525,#526,#527);
#309=EDGE_LOOP('',(#528,#529));
#310=AXIS2_PLACEMENT_3D('',#530,#531,#532);
#311=FILL_AREA_STYLE('',(#533));
#312=EDGE_LOOP('',(#534,#535,#536,#537));
#313=AXIS2_PLACEMENT_3D('',#538,#539,#540);
#314=EDGE_LOOP('',(#541,#542,#543,#544));
#315=AXIS2_PLACEMENT_3D('',#545,#546,#547);
#316=EDGE_LOOP('',(#548,#549));
#317=EDGE_LOOP('',(#550,#551));
#318=AXIS2_PLACEMENT_3D('',#552,#553,#554);
#319=EDGE_LOOP('',(#555,#556,#557,#558));
#320=AXIS2_PLACEMENT_3D('',#559,#560,#561);
#321=EDGE_LOOP('',(#562,#563));
#322=EDGE_LOOP('',(#564,#565));
#323=AXIS2_PLACEMENT_3D('',#566,#567,#568);
#324=EDGE_LOOP('',(#569,#570,#571,#572));
#325=AXIS2_PLACEMENT_3D('',#573,#574,#575);
#326=FILL_AREA_STYLE('',(#576));
#327=EDGE_LOOP('',(#577,#578,#579,#580));
#328=AXIS2_PLACEMENT_3D('',#581,#582,#583);
#329=EDGE_LOOP('',(#584,#585,#586,#587));
#330=AXIS2_PLACEMENT_3D('',#588,#589,#590);
#331=EDGE_LOOP('',(#591,#592));
#332=EDGE_LOOP('',(#593,#594));
#333=AXIS2_PLACEMENT_3D('',#595,#596,#597);
#334=EDGE_LOOP('',(#598,#599,#600,#601));
#335=AXIS2_PLACEMENT_3D('',#602,#603,#604);
#336=EDGE_LOOP('',(#605,#606));
#337=EDGE_LOOP('',(#607,#608));
#338=AXIS2_PLACEMENT_3D('',#609,#610,#611);
#339=EDGE_LOOP('',(#612,#613,#614,#615));
#340=AXIS2_PLACEMENT_3D('',#616,#617,#618);
#341=EDGE_LOOP('',(#619,#620,#621,#622));
#342=AXIS2_PLACEMENT_3D('',#623,#624,#625);
#343=FILL_AREA_STYLE_COLOUR('',#626);
#344=ORIENTED_EDGE('',*,*,#627,.T.);
#345=ORIENTED_EDGE('',*,*,#628,.T.);
#346=ORIENTED_EDGE('',*,*,#629,.T.);
#347=ORIENTED_EDGE('',*,*,#630,.T.);
#348=CARTESIAN_POINT('',(0.0,0.0,0.035));
#349=DIRECTION('',(0.0,0.0,1.0));
#350=DIRECTION('',(1.0,0.0,0.0));
#351=ORIENTED_EDGE('',*,*,#631,.T.);
#352=ORIENTED_EDGE('',*,*,#632,.T.);
#353=ORIENTED_EDGE('',*,*,#633,.T.);
#354=ORIENTED_EDGE('',*,*,#634,.T.);
#355=CARTESIAN_POINT('',(0.0,0.0,0.0));
#356=DIRECTION('',(0.0,0.0,1.0));
#357=DIRECTION('',(1.0,0.0,0.0));
#358=ORIENTED_EDGE('',*,*,#635,.T.);
#359=ORIENTED_EDGE('',*,*,#632,.F.);
#360=ORIENTED_EDGE('',*,*,#636,.F.);
#361=ORIENTED_EDGE('',*,*,#630,.F.);
#362=CARTESIAN_POINT('',(0.0,-4.475,0.0175));
#363=DIRECTION('',(0.0,1.0,0.0));
#364=DIRECTION('',(0.0,0.0,1.0));
#365=ORIENTED_EDGE('',*,*,#637,.T.);
#366=ORIENTED_EDGE('',*,*,#633,.F.);
#367=ORIENTED_EDGE('',*,*,#635,.F.);
#368=ORIENTED_EDGE('',*,*,#629,.F.);
#369=CARTESIAN_POINT('',(-5.65,0.0,0.0175));
#370=DIRECTION('',(1.0,0.0,0.0));
#371=DIRECTION('',(0.0,0.0,-1.0));
#372=ORIENTED_EDGE('',*,*,#638,.T.);
#373=ORIENTED_EDGE('',*,*,#634,.F.);
#374=ORIENTED_EDGE('',*,*,#637,.F.);
#375=ORIENTED_EDGE('',*,*,#628,.F.);
#376=CARTESIAN_POINT('',(0.0,4.475,0.0175));
#377=DIRECTION('',(0.0,-1.0,0.0));
#378=DIRECTION('',(0.0,0.0,-1.0));
#379=ORIENTED_EDGE('',*,*,#636,.T.);
#380=ORIENTED_EDGE('',*,*,#631,.F.);
#381=ORIENTED_EDGE('',*,*,#638,.F.);
#382=ORIENTED_EDGE('',*,*,#627,.F.);
#383=CARTESIAN_POINT('',(5.65,0.0,0.0175));
#384=DIRECTION('',(-1.0,0.0,0.0));
#385=DIRECTION('',(0.0,0.0,1.0));
#386=FILL_AREA_STYLE_COLOUR('',#639);
#387=ORIENTED_EDGE('',*,*,#640,.F.);
#388=ORIENTED_EDGE('',*,*,#641,.F.);
#389=ORIENTED_EDGE('',*,*,#642,.F.);
#390=ORIENTED_EDGE('',*,*,#643,.F.);
#391=CARTESIAN_POINT('',(0.0,2.0,-0.2715));
#392=DIRECTION('',(0.0,0.0,1.0));
#393=DIRECTION('',(1.0,0.0,0.0));
#394=ORIENTED_EDGE('',*,*,#640,.T.);
#395=ORIENTED_EDGE('',*,*,#644,.F.);
#396=ORIENTED_EDGE('',*,*,#642,.T.);
#397=ORIENTED_EDGE('',*,*,#645,.F.);
#398=CARTESIAN_POINT('',(0.0,2.0,-0.2715));
#399=DIRECTION('',(0.0,0.0,1.0));
#400=DIRECTION('',(1.0,0.0,0.0));
#401=ORIENTED_EDGE('',*,*,#645,.T.);
#402=ORIENTED_EDGE('',*,*,#641,.T.);
#403=ORIENTED_EDGE('',*,*,#646,.T.);
#404=ORIENTED_EDGE('',*,*,#647,.T.);
#405=ORIENTED_EDGE('',*,*,#648,.T.);
#406=ORIENTED_EDGE('',*,*,#649,.T.);
#407=CARTESIAN_POINT('',(0.0,0.0,0.0));
#408=DIRECTION('',(0.0,0.0,1.0));
#409=DIRECTION('',(1.0,0.0,0.0));
#410=ORIENTED_EDGE('',*,*,#644,.T.);
#411=ORIENTED_EDGE('',*,*,#643,.T.);
#412=ORIENTED_EDGE('',*,*,#650,.T.);
#413=ORIENTED_EDGE('',*,*,#651,.T.);
#414=ORIENTED_EDGE('',*,*,#652,.T.);
#415=ORIENTED_EDGE('',*,*,#653,.T.);
#416=CARTESIAN_POINT('',(0.0,0.0,-0.508));
#417=DIRECTION('',(0.0,0.0,1.0));
#418=DIRECTION('',(1.0,0.0,0.0));
#419=ORIENTED_EDGE('',*,*,#654,.T.);
#420=ORIENTED_EDGE('',*,*,#651,.F.);
#421=ORIENTED_EDGE('',*,*,#655,.F.);
#422=ORIENTED_EDGE('',*,*,#649,.F.);
#423=CARTESIAN_POINT('',(0.0,-10.0,-0.254));
#424=DIRECTION('',(0.0,1.0,0.0));
#425=DIRECTION('',(0.0,0.0,1.0));
#426=ORIENTED_EDGE('',*,*,#656,.T.);
#427=ORIENTED_EDGE('',*,*,#652,.F.);
#428=ORIENTED_EDGE('',*,*,#654,.F.);
#429=ORIENTED_EDGE('',*,*,#648,.F.);
#430=CARTESIAN_POINT('',(-10.0,0.0,-0.254));
#431=DIRECTION('',(1.0,0.0,0.0));
#432=DIRECTION('',(0.0,0.0,-1.0));
#433=ORIENTED_EDGE('',*,*,#657,.T.);
#434=ORIENTED_EDGE('',*,*,#653,.F.);
#435=ORIENTED_EDGE('',*,*,#656,.F.);
#436=ORIENTED_EDGE('',*,*,#647,.F.);
#437=CARTESIAN_POINT('',(0.0,10.0,-0.254));
#438=DIRECTION('',(0.0,-1.0,0.0));
#439=DIRECTION('',(0.0,0.0,-1.0));
#440=ORIENTED_EDGE('',*,*,#655,.T.);
#441=ORIENTED_EDGE('',*,*,#650,.F.);
#442=ORIENTED_EDGE('',*,*,#657,.F.);
#443=ORIENTED_EDGE('',*,*,#646,.F.);
#444=CARTESIAN_POINT('',(10.0,0.0,-0.254));
#445=DIRECTION('',(-1.0,0.0,0.0));
#446=DIRECTION('',(0.0,0.0,1.0));
#447=FILL_AREA_STYLE_COLOUR('',#658);
#448=ORIENTED_EDGE('',*,*,#659,.F.);
#449=ORIENTED_EDGE('',*,*,#660,.F.);
#450=ORIENTED_EDGE('',*,*,#661,.F.);
#451=ORIENTED_EDGE('',*,*,#662,.F.);
#452=CARTESIAN_POINT('',(0.0,2.0,-0.2715));
#453=DIRECTION('',(0.0,0.0,1.0));
#454=DIRECTION('',(1.0,0.0,0.0));
#455=ORIENTED_EDGE('',*,*,#659,.T.);
#456=ORIENTED_EDGE('',*,*,#663,.F.);
#457=ORIENTED_EDGE('',*,*,#661,.T.);
#458=ORIENTED_EDGE('',*,*,#664,.F.);
#459=CARTESIAN_POINT('',(0.0,2.0,-0.2715));
#460=DIRECTION('',(0.0,0.0,1.0));
#461=DIRECTION('',(1.0,0.0,0.0));
#462=ORIENTED_EDGE('',*,*,#665,.T.);
#463=ORIENTED_EDGE('',*,*,#666,.F.);
#464=ORIENTED_EDGE('',*,*,#667,.T.);
#465=ORIENTED_EDGE('',*,*,#668,.T.);
#466=CARTESIAN_POINT('',(0.0,10.0,-0.508));
#467=DIRECTION('',(-0.0,1.0,0.0));
#468=DIRECTION('',(1.0,0.0,0.0));
#469=ORIENTED_EDGE('',*,*,#669,.T.);
#470=ORIENTED_EDGE('',*,*,#670,.F.);
#471=ORIENTED_EDGE('',*,*,#671,.T.);
#472=ORIENTED_EDGE('',*,*,#666,.T.);
#473=CARTESIAN_POINT('',(-10.0,0.0,-0.508));
#474=DIRECTION('',(-1.0,0.0,0.0));
#475=DIRECTION('',(0.0,1.0,0.0));
#476=ORIENTED_EDGE('',*,*,#672,.T.);
#477=ORIENTED_EDGE('',*,*,#673,.F.);
#478=ORIENTED_EDGE('',*,*,#674,.T.);
#479=ORIENTED_EDGE('',*,*,#670,.T.);
#480=CARTESIAN_POINT('',(0.0,-10.0,-0.508));
#481=DIRECTION('',(-0.0,-1.0,-0.0));
#482=DIRECTION('',(-1.0,0.0,0.0));
#483=ORIENTED_EDGE('',*,*,#675,.T.);
#484=ORIENTED_EDGE('',*,*,#668,.F.);
#485=ORIENTED_EDGE('',*,*,#676,.T.);
#486=ORIENTED_EDGE('',*,*,#673,.T.);
#487=CARTESIAN_POINT('',(10.0,0.0,-0.508));
#488=DIRECTION('',(1.0,0.0,0.0));
#489=DIRECTION('',(0.0,-1.0,0.0));
#490=ORIENTED_EDGE('',*,*,#662,.T.);
#491=ORIENTED_EDGE('',*,*,#663,.T.);
#492=ORIENTED_EDGE('',*,*,#665,.F.);
#493=ORIENTED_EDGE('',*,*,#675,.F.);
#494=ORIENTED_EDGE('',*,*,#672,.F.);
#495=ORIENTED_EDGE('',*,*,#669,.F.);
#496=CARTESIAN_POINT('',(0.0,0.0,-0.543));
#497=DIRECTION('',(0.0,0.0,1.0));
#498=DIRECTION('',(1.0,0.0,0.0));
#499=ORIENTED_EDGE('',*,*,#660,.T.);
#500=ORIENTED_EDGE('',*,*,#664,.T.);
#501=ORIENTED_EDGE('',*,*,#676,.F.);
#502=ORIENTED_EDGE('',*,*,#667,.F.);
#503=ORIENTED_EDGE('',*,*,#671,.F.);
#504=ORIENTED_EDGE('',*,*,#674,.F.);
#505=CARTESIAN_POINT('',(0.0,0.0,-0.508));
#506=DIRECTION('',(0.0,0.0,1.0));
#507=DIRECTION('',(1.0,0.0,0.0));
#508=FILL_AREA_STYLE_COLOUR('',#677);
#509=ORIENTED_EDGE('',*,*,#678,.F.);
#510=ORIENTED_EDGE('',*,*,#679,.F.);
#511=ORIENTED_EDGE('',*,*,#680,.F.);
#512=ORIENTED_EDGE('',*,*,#681,.F.);
#513=CARTESIAN_POINT('',(0.0,2.0,-1.2715));
#514=DIRECTION('',(0.0,0.0,1.0));
#515=DIRECTION('',(1.0,0.0,0.0));
#516=ORIENTED_EDGE('',*,*,#678,.T.);
#517=ORIENTED_EDGE('',*,*,#682,.F.);
#518=ORIENTED_EDGE('',*,*,#680,.T.);
#519=ORIENTED_EDGE('',*,*,#683,.F.);
#520=CARTESIAN_POINT('',(0.0,2.0,-1.2715));
#521=DIRECTION('',(0.0,0.0,1.0));
#522=DIRECTION('',(1.0,0.0,0.0));
#523=ORIENTED_EDGE('',*,*,#683,.T.);
#524=ORIENTED_EDGE('',*,*,#679,.T.);
#525=CARTESIAN_POINT('',(0.0,2.0,-2.543));
#526=DIRECTION('',(0.0,0.0,-1.0));
#527=DIRECTION('',(-1.0,0.0,0.0));
#528=ORIENTED_EDGE('',*,*,#681,.T.);
#529=ORIENTED_EDGE('',*,*,#682,.T.);
#530=CARTESIAN_POINT('',(0.0,2.0,0.0));
#531=DIRECTION('',(0.0,0.0,1.0));
#532=DIRECTION('',(1.0,0.0,0.0));
#533=FILL_AREA_STYLE_COLOUR('',#684);
#534=ORIENTED_EDGE('',*,*,#685,.F.);
#535=ORIENTED_EDGE('',*,*,#686,.F.);
#536=ORIENTED_EDGE('',*,*,#687,.F.);
#537=ORIENTED_EDGE('',*,*,#688,.T.);
#538=CARTESIAN_POINT('',(0.0,2.0,-1.2715));
#539=DIRECTION('',(0.0,0.0,1.0));
#540=DIRECTION('',(1.0,0.0,0.0));
#541=ORIENTED_EDGE('',*,*,#689,.F.);
#542=ORIENTED_EDGE('',*,*,#690,.T.);
#543=ORIENTED_EDGE('',*,*,#691,.F.);
#544=ORIENTED_EDGE('',*,*,#692,.F.);
#545=CARTESIAN_POINT('',(0.0,2.0,-1.2715));
#546=DIRECTION('',(0.0,0.0,1.0));
#547=DIRECTION('',(1.0,0.0,0.0));
#548=ORIENTED_EDGE('',*,*,#690,.F.);
#549=ORIENTED_EDGE('',*,*,#693,.F.);
#550=ORIENTED_EDGE('',*,*,#694,.T.);
#551=ORIENTED_EDGE('',*,*,#686,.T.);
#552=CARTESIAN_POINT('',(0.95,2.0,-2.543));
#553=DIRECTION('',(-0.0,0.0,-1.0));
#554=DIRECTION('',(-1.0,-0.0,0.0));
#555=ORIENTED_EDGE('',*,*,#689,.T.);
#556=ORIENTED_EDGE('',*,*,#695,.F.);
#557=ORIENTED_EDGE('',*,*,#691,.T.);
#558=ORIENTED_EDGE('',*,*,#693,.T.);
#559=CARTESIAN_POINT('',(0.0,2.0,-1.2715));
#560=DIRECTION('',(0.0,0.0,1.0));
#561=DIRECTION('',(1.0,0.0,0.0));
#562=ORIENTED_EDGE('',*,*,#696,.F.);
#563=ORIENTED_EDGE('',*,*,#688,.F.);
#564=ORIENTED_EDGE('',*,*,#692,.T.);
#565=ORIENTED_EDGE('',*,*,#695,.T.);
#566=CARTESIAN_POINT('',(0.95,2.0,0.0));
#567=DIRECTION('',(0.0,0.0,1.0));
#568=DIRECTION('',(1.0,-0.0,-0.0));
#569=ORIENTED_EDGE('',*,*,#685,.T.);
#570=ORIENTED_EDGE('',*,*,#696,.T.);
#571=ORIENTED_EDGE('',*,*,#687,.T.);
#572=ORIENTED_EDGE('',*,*,#694,.F.);
#573=CARTESIAN_POINT('',(0.0,2.0,-1.2715));
#574=DIRECTION('',(0.0,0.0,1.0));
#575=DIRECTION('',(1.0,0.0,0.0));
#576=FILL_AREA_STYLE_COLOUR('',#697);
#577=ORIENTED_EDGE('',*,*,#698,.F.);
#578=ORIENTED_EDGE('',*,*,#699,.F.);
#579=ORIENTED_EDGE('',*,*,#700,.F.);
#580=ORIENTED_EDGE('',*,*,#701,.T.);
#581=CARTESIAN_POINT('',(0.0,2.0,-1.543));
#582=DIRECTION('',(0.0,0.0,1.0));
#583=DIRECTION('',(1.0,-3.0626842058625E-16,0.0));
#584=ORIENTED_EDGE('',*,*,#702,.F.);
#585=ORIENTED_EDGE('',*,*,#703,.T.);
#586=ORIENTED_EDGE('',*,*,#704,.F.);
#587=ORIENTED_EDGE('',*,*,#705,.F.);
#588=CARTESIAN_POINT('',(0.0,2.0,-1.543));
#589=DIRECTION('',(0.0,0.0,1.0));
#590=DIRECTION('',(1.0,-3.0626842058625E-16,0.0));
#591=ORIENTED_EDGE('',*,*,#703,.F.);
#592=ORIENTED_EDGE('',*,*,#706,.F.);
#593=ORIENTED_EDGE('',*,*,#707,.T.);
#594=ORIENTED_EDGE('',*,*,#699,.T.);
#595=CARTESIAN_POINT('',(1.5,2.0,-2.543));
#596=DIRECTION('',(-0.0,0.0,-1.0));
#597=DIRECTION('',(-1.0,-0.0,0.0));
#598=ORIENTED_EDGE('',*,*,#702,.T.);
#599=ORIENTED_EDGE('',*,*,#708,.F.);
#600=ORIENTED_EDGE('',*,*,#704,.T.);
#601=ORIENTED_EDGE('',*,*,#706,.T.);
#602=CARTESIAN_POINT('',(0.0,2.0,-1.543));
#603=DIRECTION('',(0.0,0.0,1.0));
#604=DIRECTION('',(1.0,-3.0626842058625E-16,0.0));
#605=ORIENTED_EDGE('',*,*,#709,.F.);
#606=ORIENTED_EDGE('',*,*,#701,.F.);
#607=ORIENTED_EDGE('',*,*,#705,.T.);
#608=ORIENTED_EDGE('',*,*,#708,.T.);
#609=CARTESIAN_POINT('',(1.5,2.0,-0.543));
#610=DIRECTION('',(-0.0,0.0,1.0));
#611=DIRECTION('',(1.0,0.0,0.0));
#612=ORIENTED_EDGE('',*,*,#698,.T.);
#613=ORIENTED_EDGE('',*,*,#709,.T.);
#614=ORIENTED_EDGE('',*,*,#700,.T.);
#615=ORIENTED_EDGE('',*,*,#707,.F.);
#616=CARTESIAN_POINT('',(0.0,2.0,-1.543));
#617=DIRECTION('',(0.0,0.0,1.0));
#618=DIRECTION('',(1.0,-3.0626842058625E-16,0.0));
#619=ORIENTED_EDGE('',*,*,#710,.T.);
#620=ORIENTED_EDGE('',*,*,#711,.T.);
#621=ORIENTED_EDGE('',*,*,#712,.T.);
#622=ORIENTED_EDGE('',*,*,#713,.T.);
#623=CARTESIAN_POINT('',(1.55,0.45,-2.543));
#624=DIRECTION('',(0.0,-0.0,1.0));
#625=DIRECTION('',(1.0,0.0,-0.0));
#626=COLOUR_RGB('',1.0,1.0,0.0);
#627=EDGE_CURVE('',#714,#715,#716,.T.);
#628=EDGE_CURVE('',#715,#717,#718,.T.);
#629=EDGE_CURVE('',#717,#719,#720,.T.);
#630=EDGE_CURVE('',#719,#714,#721,.T.);
#631=EDGE_CURVE('',#722,#723,#724,.T.);
#632=EDGE_CURVE('',#723,#725,#726,.T.);
#633=EDGE_CURVE('',#725,#727,#728,.T.);
#634=EDGE_CURVE('',#727,#722,#729,.T.);
#635=EDGE_CURVE('',#719,#725,#730,.T.);
#636=EDGE_CURVE('',#714,#723,#731,.T.);
#637=EDGE_CURVE('',#717,#727,#732,.T.);
#638=EDGE_CURVE('',#715,#722,#733,.T.);
#639=COLOUR_RGB('',0.75,0.949999988079071,0.850000023841858);
#640=EDGE_CURVE('',#734,#735,#736,.T.);
#641=EDGE_CURVE('',#737,#734,#738,.T.);
#642=EDGE_CURVE('',#739,#737,#740,.T.);
#643=EDGE_CURVE('',#735,#739,#741,.T.);
#644=EDGE_CURVE('',#739,#735,#742,.T.);
#645=EDGE_CURVE('',#734,#737,#743,.T.);
#646=EDGE_CURVE('',#744,#745,#746,.T.);
#647=EDGE_CURVE('',#745,#747,#748,.T.);
#648=EDGE_CURVE('',#747,#749,#750,.T.);
#649=EDGE_CURVE('',#749,#744,#751,.T.);
#650=EDGE_CURVE('',#752,#753,#754,.T.);
#651=EDGE_CURVE('',#753,#755,#756,.T.);
#652=EDGE_CURVE('',#755,#757,#758,.T.);
#653=EDGE_CURVE('',#757,#752,#759,.T.);
#654=EDGE_CURVE('',#749,#755,#760,.T.);
#655=EDGE_CURVE('',#744,#753,#761,.T.);
#656=EDGE_CURVE('',#747,#757,#762,.T.);
#657=EDGE_CURVE('',#745,#752,#763,.T.);
#658=COLOUR_RGB('',1.0,1.0,0.0);
#659=EDGE_CURVE('',#764,#765,#766,.T.);
#660=EDGE_CURVE('',#767,#764,#768,.T.);
#661=EDGE_CURVE('',#769,#767,#770,.T.);
#662=EDGE_CURVE('',#765,#769,#771,.T.);
#663=EDGE_CURVE('',#769,#765,#772,.T.);
#664=EDGE_CURVE('',#764,#767,#773,.T.);
#665=EDGE_CURVE('',#774,#775,#776,.T.);
#666=EDGE_CURVE('',#777,#775,#778,.T.);
#667=EDGE_CURVE('',#777,#779,#780,.T.);
#668=EDGE_CURVE('',#779,#774,#781,.T.);
#669=EDGE_CURVE('',#775,#782,#783,.T.);
#670=EDGE_CURVE('',#784,#782,#785,.T.);
#671=EDGE_CURVE('',#784,#777,#786,.T.);
#672=EDGE_CURVE('',#782,#787,#788,.T.);
#673=EDGE_CURVE('',#789,#787,#790,.T.);
#674=EDGE_CURVE('',#789,#784,#791,.T.);
#675=EDGE_CURVE('',#787,#774,#792,.T.);
#676=EDGE_CURVE('',#779,#789,#793,.T.);
#677=COLOUR_RGB('',1.0,1.0,0.0);
#678=EDGE_CURVE('',#794,#795,#796,.T.);
#679=EDGE_CURVE('',#797,#794,#798,.T.);
#680=EDGE_CURVE('',#799,#797,#800,.T.);
#681=EDGE_CURVE('',#795,#799,#801,.T.);
#682=EDGE_CURVE('',#799,#795,#802,.T.);
#683=EDGE_CURVE('',#794,#797,#803,.T.);
#684=COLOUR_RGB('',0.939999997615814,0.819999992847443,0.759999990463257);
#685=EDGE_CURVE('',#804,#805,#806,.T.);
#686=EDGE_CURVE('',#807,#804,#808,.T.);
#687=EDGE_CURVE('',#809,#807,#810,.T.);
#688=EDGE_CURVE('',#809,#805,#811,.T.);
#689=EDGE_CURVE('',#812,#813,#814,.T.);
#690=EDGE_CURVE('',#812,#815,#816,.T.);
#691=EDGE_CURVE('',#817,#815,#818,.T.);
#692=EDGE_CURVE('',#813,#817,#819,.T.);
#693=EDGE_CURVE('',#815,#812,#820,.T.);
#694=EDGE_CURVE('',#804,#807,#821,.T.);
#695=EDGE_CURVE('',#817,#813,#822,.T.);
#696=EDGE_CURVE('',#805,#809,#823,.T.);
#697=COLOUR_RGB('',1.0,1.0,0.0);
#698=EDGE_CURVE('',#824,#825,#826,.T.);
#699=EDGE_CURVE('',#827,#824,#828,.T.);
#700=EDGE_CURVE('',#829,#827,#830,.T.);
#701=EDGE_CURVE('',#829,#825,#831,.T.);
#702=EDGE_CURVE('',#832,#833,#834,.T.);
#703=EDGE_CURVE('',#832,#835,#836,.T.);
#704=EDGE_CURVE('',#837,#835,#838,.T.);
#705=EDGE_CURVE('',#833,#837,#839,.T.);
#706=EDGE_CURVE('',#835,#832,#840,.T.);
#707=EDGE_CURVE('',#824,#827,#841,.T.);
#708=EDGE_CURVE('',#837,#833,#842,.T.);
#709=EDGE_CURVE('',#825,#829,#843,.T.);
#710=EDGE_CURVE('',#844,#845,#846,.T.);
#711=EDGE_CURVE('',#845,#847,#848,.T.);
#712=EDGE_CURVE('',#847,#849,#850,.T.);
#713=EDGE_CURVE('',#849,#844,#851,.T.);
#714=VERTEX_POINT('',#852);
#715=VERTEX_POINT('',#853);
#716=LINE('',#854,#855);
#717=VERTEX_POINT('',#856);
#718=LINE('',#857,#858);
#719=VERTEX_POINT('',#859);
#720=LINE('',#860,#861);
#721=LINE('',#862,#863);
#722=VERTEX_POINT('',#864);
#723=VERTEX_POINT('',#865);
#724=LINE('',#866,#867);
#725=VERTEX_POINT('',#868);
#726=LINE('',#869,#870);
#727=VERTEX_POINT('',#871);
#728=LINE('',#872,#873);
#729=LINE('',#874,#875);
#730=LINE('',#876,#877);
#731=LINE('',#878,#879);
#732=LINE('',#880,#881);
#733=LINE('',#882,#883);
#734=VERTEX_POINT('',#884);
#735=VERTEX_POINT('',#885);
#736=LINE('',#886,#887);
#737=VERTEX_POINT('',#888);
#738=CIRCLE('',#889,1.45);
#739=VERTEX_POINT('',#890);
#740=LINE('',#891,#892);
#741=CIRCLE('',#893,1.45);
#742=CIRCLE('',#894,1.45);
#743=CIRCLE('',#895,1.45);
#744=VERTEX_POINT('',#896);
#745=VERTEX_POINT('',#897);
#746=LINE('',#898,#899);
#747=VERTEX_POINT('',#900);
#748=LINE('',#901,#902);
#749=VERTEX_POINT('',#903);
#750=LINE('',#904,#905);
#751=LINE('',#906,#907);
#752=VERTEX_POINT('',#908);
#753=VERTEX_POINT('',#909);
#754=LINE('',#910,#911);
#755=VERTEX_POINT('',#912);
#756=LINE('',#913,#914);
#757=VERTEX_POINT('',#915);
#758=LINE('',#916,#917);
#759=LINE('',#918,#919);
#760=LINE('',#920,#921);
#761=LINE('',#922,#923);
#762=LINE('',#924,#925);
#763=LINE('',#926,#927);
#764=VERTEX_POINT('',#928);
#765=VERTEX_POINT('',#929);
#766=LINE('',#930,#931);
#767=VERTEX_POINT('',#932);
#768=CIRCLE('',#933,1.45);
#769=VERTEX_POINT('',#934);
#770=LINE('',#935,#936);
#771=CIRCLE('',#937,1.45);
#772=CIRCLE('',#938,1.45);
#773=CIRCLE('',#939,1.45);
#774=VERTEX_POINT('',#940);
#775=VERTEX_POINT('',#941);
#776=LINE('',#942,#943);
#777=VERTEX_POINT('',#944);
#778=LINE('',#945,#946);
#779=VERTEX_POINT('',#947);
#780=LINE('',#948,#949);
#781=LINE('',#950,#951);
#782=VERTEX_POINT('',#952);
#783=LINE('',#953,#954);
#784=VERTEX_POINT('',#955);
#785=LINE('',#956,#957);
#786=LINE('',#958,#959);
#787=VERTEX_POINT('',#960);
#788=LINE('',#961,#962);
#789=VERTEX_POINT('',#963);
#790=LINE('',#964,#965);
#791=LINE('',#966,#967);
#792=LINE('',#968,#969);
#793=LINE('',#970,#971);
#794=VERTEX_POINT('',#972);
#795=VERTEX_POINT('',#973);
#796=LINE('',#974,#975);
#797=VERTEX_POINT('',#976);
#798=CIRCLE('',#977,0.45);
#799=VERTEX_POINT('',#978);
#800=LINE('',#979,#980);
#801=CIRCLE('',#981,0.45);
#802=CIRCLE('',#982,0.45);
#803=CIRCLE('',#983,0.45);
#804=VERTEX_POINT('',#984);
#805=VERTEX_POINT('',#985);
#806=LINE('',#986,#987);
#807=VERTEX_POINT('',#988);
#808=CIRCLE('',#989,0.45);
#809=VERTEX_POINT('',#990);
#810=LINE('',#991,#992);
#811=CIRCLE('',#993,0.45);
#812=VERTEX_POINT('',#994);
#813=VERTEX_POINT('',#995);
#814=LINE('',#996,#997);
#815=VERTEX_POINT('',#998);
#816=CIRCLE('',#999,1.45);
#817=VERTEX_POINT('',#1000);
#818=LINE('',#1001,#1002);
#819=CIRCLE('',#1003,1.45);
#820=CIRCLE('',#1004,1.45);
#821=CIRCLE('',#1005,0.45);
#822=CIRCLE('',#1006,1.45);
#823=CIRCLE('',#1007,0.45);
#824=VERTEX_POINT('',#1008);
#825=VERTEX_POINT('',#1009);
#826=LINE('',#1010,#1011);
#827=VERTEX_POINT('',#1012);
#828=CIRCLE('',#1013,1.45);
#829=VERTEX_POINT('',#1014);
#830=LINE('',#1015,#1016);
#831=CIRCLE('',#1017,1.45);
#832=VERTEX_POINT('',#1018);
#833=VERTEX_POINT('',#1019);
#834=LINE('',#1020,#1021);
#835=VERTEX_POINT('',#1022);
#836=CIRCLE('',#1023,1.55);
#837=VERTEX_POINT('',#1024);
#838=LINE('',#1025,#1026);
#839=CIRCLE('',#1027,1.55);
#840=CIRCLE('',#1028,1.55);
#841=CIRCLE('',#1029,1.45);
#842=CIRCLE('',#1030,1.55);
#843=CIRCLE('',#1031,1.45);
#844=VERTEX_POINT('',#1032);
#845=VERTEX_POINT('',#1033);
#846=LINE('',#1034,#1035);
#847=VERTEX_POINT('',#1036);
#848=LINE('',#1037,#1038);
#849=VERTEX_POINT('',#1039);
#850=LINE('',#1040,#1041);
#851=LINE('',#1042,#1043);
#852=CARTESIAN_POINT('',(5.65,-4.475,0.035));
#853=CARTESIAN_POINT('',(5.65,4.475,0.035));
#854=CARTESIAN_POINT('',(5.65,0.0,0.035));
#855=VECTOR('',#1044,1.0);
#856=CARTESIAN_POINT('',(-5.65,4.475,0.035));
#857=CARTESIAN_POINT('',(0.0,4.475,0.035));
#858=VECTOR('',#1045,1.0);
#859=CARTESIAN_POINT('',(-5.65,-4.475,0.035));
#860=CARTESIAN_POINT('',(-5.65,0.0,0.035));
#861=VECTOR('',#1046,1.0);
#862=CARTESIAN_POINT('',(0.0,-4.475,0.035));
#863=VECTOR('',#1047,1.0);
#864=CARTESIAN_POINT('',(5.65,4.475,0.0));
#865=CARTESIAN_POINT('',(5.65,-4.475,0.0));
#866=CARTESIAN_POINT('',(5.65,0.0,0.0));
#867=VECTOR('',#1048,1.0);
#868=CARTESIAN_POINT('',(-5.65,-4.475,0.0));
#869=CARTESIAN_POINT('',(0.0,-4.475,0.0));
#870=VECTOR('',#1049,1.0);
#871=CARTESIAN_POINT('',(-5.65,4.475,0.0));
#872=CARTESIAN_POINT('',(-5.65,0.0,0.0));
#873=VECTOR('',#1050,1.0);
#874=CARTESIAN_POINT('',(0.0,4.475,0.0));
#875=VECTOR('',#1051,1.0);
#876=CARTESIAN_POINT('',(-5.65,-4.475,0.0175));
#877=VECTOR('',#1052,1.0);
#878=CARTESIAN_POINT('',(5.65,-4.475,0.0175));
#879=VECTOR('',#1053,1.0);
#880=CARTESIAN_POINT('',(-5.65,4.475,0.0175));
#881=VECTOR('',#1054,1.0);
#882=CARTESIAN_POINT('',(5.65,4.475,0.0175));
#883=VECTOR('',#1055,1.0);
#884=CARTESIAN_POINT('',(1.45,2.0,0.0));
#885=CARTESIAN_POINT('',(1.45,2.0,-0.508));
#886=CARTESIAN_POINT('',(1.45,2.0,-0.2715));
#887=VECTOR('',#1056,1.0);
#888=CARTESIAN_POINT('',(-1.45,2.0,0.0));
#889=AXIS2_PLACEMENT_3D('',#1057,#1058,#1059);
#890=CARTESIAN_POINT('',(-1.45,2.0,-0.508));
#891=CARTESIAN_POINT('',(-1.45,2.0,-0.2715));
#892=VECTOR('',#1060,1.0);
#893=AXIS2_PLACEMENT_3D('',#1061,#1062,#1063);
#894=AXIS2_PLACEMENT_3D('',#1064,#1065,#1066);
#895=AXIS2_PLACEMENT_3D('',#1067,#1068,#1069);
#896=CARTESIAN_POINT('',(10.0,-10.0,0.0));
#897=CARTESIAN_POINT('',(10.0,10.0,0.0));
#898=CARTESIAN_POINT('',(10.0,0.0,0.0));
#899=VECTOR('',#1070,1.0);
#900=CARTESIAN_POINT('',(-10.0,10.0,0.0));
#901=CARTESIAN_POINT('',(0.0,10.0,0.0));
#902=VECTOR('',#1071,1.0);
#903=CARTESIAN_POINT('',(-10.0,-10.0,0.0));
#904=CARTESIAN_POINT('',(-10.0,0.0,0.0));
#905=VECTOR('',#1072,1.0);
#906=CARTESIAN_POINT('',(0.0,-10.0,0.0));
#907=VECTOR('',#1073,1.0);
#908=CARTESIAN_POINT('',(10.0,10.0,-0.508));
#909=CARTESIAN_POINT('',(10.0,-10.0,-0.508));
#910=CARTESIAN_POINT('',(10.0,0.0,-0.508));
#911=VECTOR('',#1074,1.0);
#912=CARTESIAN_POINT('',(-10.0,-10.0,-0.508));
#913=CARTESIAN_POINT('',(0.0,-10.0,-0.508));
#914=VECTOR('',#1075,1.0);
#915=CARTESIAN_POINT('',(-10.0,10.0,-0.508));
#916=CARTESIAN_POINT('',(-10.0,0.0,-0.508));
#917=VECTOR('',#1076,1.0);
#918=CARTESIAN_POINT('',(0.0,10.0,-0.508));
#919=VECTOR('',#1077,1.0);
#920=CARTESIAN_POINT('',(-10.0,-10.0,-0.254));
#921=VECTOR('',#1078,1.0);
#922=CARTESIAN_POINT('',(10.0,-10.0,-0.254));
#923=VECTOR('',#1079,1.0);
#924=CARTESIAN_POINT('',(-10.0,10.0,-0.254));
#925=VECTOR('',#1080,1.0);
#926=CARTESIAN_POINT('',(10.0,10.0,-0.254));
#927=VECTOR('',#1081,1.0);
#928=CARTESIAN_POINT('',(1.45,2.0,-0.508));
#929=CARTESIAN_POINT('',(1.45,2.0,-0.543));
#930=CARTESIAN_POINT('',(1.45,2.0,-0.5255));
#931=VECTOR('',#1082,1.0);
#932=CARTESIAN_POINT('',(-1.45,2.0,-0.508));
#933=AXIS2_PLACEMENT_3D('',#1083,#1084,#1085);
#934=CARTESIAN_POINT('',(-1.45,2.0,-0.543));
#935=CARTESIAN_POINT('',(-1.45,2.0,-0.5255));
#936=VECTOR('',#1086,1.0);
#937=AXIS2_PLACEMENT_3D('',#1087,#1088,#1089);
#938=AXIS2_PLACEMENT_3D('',#1090,#1091,#1092);
#939=AXIS2_PLACEMENT_3D('',#1093,#1094,#1095);
#940=CARTESIAN_POINT('',(10.0,10.0,-0.543));
#941=CARTESIAN_POINT('',(-10.0,10.0,-0.543));
#942=CARTESIAN_POINT('',(0.0,10.0,-0.543));
#943=VECTOR('',#1096,1.0);
#944=CARTESIAN_POINT('',(-10.0,10.0,-0.508));
#945=CARTESIAN_POINT('',(-10.0,10.0,-0.508));
#946=VECTOR('',#1097,1.0);
#947=CARTESIAN_POINT('',(10.0,10.0,-0.508));
#948=CARTESIAN_POINT('',(0.0,10.0,-0.508));
#949=VECTOR('',#1098,1.0);
#950=CARTESIAN_POINT('',(10.0,10.0,-0.508));
#951=VECTOR('',#1099,1.0);
#952=CARTESIAN_POINT('',(-10.0,-10.0,-0.543));
#953=CARTESIAN_POINT('',(-10.0,0.0,-0.543));
#954=VECTOR('',#1100,1.0);
#955=CARTESIAN_POINT('',(-10.0,-10.0,-0.508));
#956=CARTESIAN_POINT('',(-10.0,-10.0,-0.508));
#957=VECTOR('',#1101,1.0);
#958=CARTESIAN_POINT('',(-10.0,0.0,-0.508));
#959=VECTOR('',#1102,1.0);
#960=CARTESIAN_POINT('',(10.0,-10.0,-0.543));
#961=CARTESIAN_POINT('',(0.0,-10.0,-0.543));
#962=VECTOR('',#1103,1.0);
#963=CARTESIAN_POINT('',(10.0,-10.0,-0.508));
#964=CARTESIAN_POINT('',(10.0,-10.0,-0.508));
#965=VECTOR('',#1104,1.0);
#966=CARTESIAN_POINT('',(0.0,-10.0,-0.508));
#967=VECTOR('',#1105,1.0);
#968=CARTESIAN_POINT('',(10.0,0.0,-0.543));
#969=VECTOR('',#1106,1.0);
#970=CARTESIAN_POINT('',(10.0,0.0,-0.508));
#971=VECTOR('',#1107,1.0);
#972=CARTESIAN_POINT('',(0.45,2.0,-2.543));
#973=CARTESIAN_POINT('',(0.45,2.0,0.0));
#974=CARTESIAN_POINT('',(0.45,2.0,-1.2715));
#975=VECTOR('',#1108,1.0);
#976=CARTESIAN_POINT('',(-0.45,2.0,-2.543));
#977=AXIS2_PLACEMENT_3D('',#1109,#1110,#1111);
#978=CARTESIAN_POINT('',(-0.45,2.0,0.0));
#979=CARTESIAN_POINT('',(-0.45,2.0,-1.2715));
#980=VECTOR('',#1112,1.0);
#981=AXIS2_PLACEMENT_3D('',#1113,#1114,#1115);
#982=AXIS2_PLACEMENT_3D('',#1116,#1117,#1118);
#983=AXIS2_PLACEMENT_3D('',#1119,#1120,#1121);
#984=CARTESIAN_POINT('',(0.45,2.0,-2.543));
#985=CARTESIAN_POINT('',(0.45,2.0,0.0));
#986=CARTESIAN_POINT('',(0.45,2.0,-1.2715));
#987=VECTOR('',#1122,1.0);
#988=CARTESIAN_POINT('',(-0.45,2.0,-2.543));
#989=AXIS2_PLACEMENT_3D('',#1123,#1124,#1125);
#990=CARTESIAN_POINT('',(-0.45,2.0,0.0));
#991=CARTESIAN_POINT('',(-0.45,2.0,-1.2715));
#992=VECTOR('',#1126,1.0);
#993=AXIS2_PLACEMENT_3D('',#1127,#1128,#1129);
#994=CARTESIAN_POINT('',(1.45,2.0,-2.543));
#995=CARTESIAN_POINT('',(1.45,2.0,0.0));
#996=CARTESIAN_POINT('',(1.45,2.0,-1.2715));
#997=VECTOR('',#1130,1.0);
#998=CARTESIAN_POINT('',(-1.45,2.0,-2.543));
#999=AXIS2_PLACEMENT_3D('',#1131,#1132,#1133);
#1000=CARTESIAN_POINT('',(-1.45,2.0,0.0));
#1001=CARTESIAN_POINT('',(-1.45,2.0,-1.2715));
#1002=VECTOR('',#1134,1.0);
#1003=AXIS2_PLACEMENT_3D('',#1135,#1136,#1137);
#1004=AXIS2_PLACEMENT_3D('',#1138,#1139,#1140);
#1005=AXIS2_PLACEMENT_3D('',#1141,#1142,#1143);
#1006=AXIS2_PLACEMENT_3D('',#1144,#1145,#1146);
#1007=AXIS2_PLACEMENT_3D('',#1147,#1148,#1149);
#1008=CARTESIAN_POINT('',(1.45,2.0,-2.543));
#1009=CARTESIAN_POINT('',(1.45,2.0,-0.543));
#1010=CARTESIAN_POINT('',(1.45,2.0,-1.543));
#1011=VECTOR('',#1150,1.0);
#1012=CARTESIAN_POINT('',(-1.45,2.0,-2.543));
#1013=AXIS2_PLACEMENT_3D('',#1151,#1152,#1153);
#1014=CARTESIAN_POINT('',(-1.45,2.0,-0.543));
#1015=CARTESIAN_POINT('',(-1.45,2.0,-1.543));
#1016=VECTOR('',#1154,1.0);
#1017=AXIS2_PLACEMENT_3D('',#1155,#1156,#1157);
#1018=CARTESIAN_POINT('',(1.55,2.0,-2.543));
#1019=CARTESIAN_POINT('',(1.55,2.0,-0.543));
#1020=CARTESIAN_POINT('',(1.55,2.0,-1.543));
#1021=VECTOR('',#1158,1.0);
#1022=CARTESIAN_POINT('',(-1.55,2.0,-2.543));
#1023=AXIS2_PLACEMENT_3D('',#1159,#1160,#1161);
#1024=CARTESIAN_POINT('',(-1.55,2.0,-0.543));
#1025=CARTESIAN_POINT('',(-1.55,2.0,-1.543));
#1026=VECTOR('',#1162,1.0);
#1027=AXIS2_PLACEMENT_3D('',#1163,#1164,#1165);
#1028=AXIS2_PLACEMENT_3D('',#1166,#1167,#1168);
#1029=AXIS2_PLACEMENT_3D('',#1169,#1170,#1171);
#1030=AXIS2_PLACEMENT_3D('',#1172,#1173,#1174);
#1031=AXIS2_PLACEMENT_3D('',#1175,#1176,#1177);
#1032=CARTESIAN_POINT('',(1.55,0.45,-2.543));
#1033=CARTESIAN_POINT('',(1.55,3.55,-2.543));
#1034=CARTESIAN_POINT('',(1.55,0.45,-2.543));
#1035=VECTOR('',#1178,1.0);
#1036=CARTESIAN_POINT('',(-1.55,3.55,-2.543));
#1037=CARTESIAN_POINT('',(1.55,3.55,-2.543));
#1038=VECTOR('',#1179,1.0);
#1039=CARTESIAN_POINT('',(-1.55,0.45,-2.543));
#1040=CARTESIAN_POINT('',(-1.55,3.55,-2.543));
#1041=VECTOR('',#1180,1.0);
#1042=CARTESIAN_POINT('',(-1.55,0.45,-2.543));
#1043=VECTOR('',#1181,1.0);
#1044=DIRECTION('',(0.0,1.0,0.0));
#1045=DIRECTION('',(-1.0,0.0,0.0));
#1046=DIRECTION('',(0.0,-1.0,0.0));
#1047=DIRECTION('',(1.0,0.0,0.0));
#1048=DIRECTION('',(0.0,-1.0,0.0));
#1049=DIRECTION('',(-1.0,0.0,0.0));
#1050=DIRECTION('',(0.0,1.0,0.0));
#1051=DIRECTION('',(1.0,0.0,0.0));
#1052=DIRECTION('',(0.0,0.0,-1.0));
#1053=DIRECTION('',(0.0,0.0,-1.0));
#1054=DIRECTION('',(0.0,0.0,-1.0));
#1055=DIRECTION('',(0.0,0.0,-1.0));
#1056=DIRECTION('',(-0.0,-0.0,-1.0));
#1057=CARTESIAN_POINT('',(0.0,2.0,0.0));
#1058=DIRECTION('',(0.0,0.0,-1.0));
#1059=DIRECTION('',(1.0,0.0,0.0));
#1060=DIRECTION('',(-0.0,0.0,1.0));
#1061=CARTESIAN_POINT('',(0.0,2.0,-0.508));
#1062=DIRECTION('',(0.0,0.0,1.0));
#1063=DIRECTION('',(1.0,0.0,0.0));
#1064=CARTESIAN_POINT('',(0.0,2.0,-0.508));
#1065=DIRECTION('',(0.0,0.0,1.0));
#1066=DIRECTION('',(1.0,0.0,0.0));
#1067=CARTESIAN_POINT('',(0.0,2.0,0.0));
#1068=DIRECTION('',(0.0,0.0,-1.0));
#1069=DIRECTION('',(1.0,0.0,0.0));
#1070=DIRECTION('',(0.0,1.0,0.0));
#1071=DIRECTION('',(-1.0,0.0,0.0));
#1072=DIRECTION('',(0.0,-1.0,0.0));
#1073=DIRECTION('',(1.0,0.0,0.0));
#1074=DIRECTION('',(0.0,-1.0,0.0));
#1075=DIRECTION('',(-1.0,0.0,0.0));
#1076=DIRECTION('',(0.0,1.0,0.0));
#1077=DIRECTION('',(1.0,0.0,0.0));
#1078=DIRECTION('',(0.0,0.0,-1.0));
#1079=DIRECTION('',(0.0,0.0,-1.0));
#1080=DIRECTION('',(0.0,0.0,-1.0));
#1081=DIRECTION('',(0.0,0.0,-1.0));
#1082=DIRECTION('',(-0.0,-0.0,-1.0));
#1083=CARTESIAN_POINT('',(0.0,2.0,-0.508));
#1084=DIRECTION('',(0.0,0.0,-1.0));
#1085=DIRECTION('',(1.0,0.0,0.0));
#1086=DIRECTION('',(-0.0,0.0,1.0));
#1087=CARTESIAN_POINT('',(0.0,2.0,-0.543));
#1088=DIRECTION('',(0.0,0.0,1.0));
#1089=DIRECTION('',(1.0,0.0,0.0));
#1090=CARTESIAN_POINT('',(0.0,2.0,-0.543));
#1091=DIRECTION('',(0.0,0.0,1.0));
#1092=DIRECTION('',(1.0,0.0,0.0));
#1093=CARTESIAN_POINT('',(0.0,2.0,-0.508));
#1094=DIRECTION('',(0.0,0.0,-1.0));
#1095=DIRECTION('',(1.0,0.0,0.0));
#1096=DIRECTION('',(-1.0,-0.0,-0.0));
#1097=DIRECTION('',(0.0,0.0,-1.0));
#1098=DIRECTION('',(1.0,0.0,0.0));
#1099=DIRECTION('',(0.0,0.0,-1.0));
#1100=DIRECTION('',(-0.0,-1.0,-0.0));
#1101=DIRECTION('',(0.0,0.0,-1.0));
#1102=DIRECTION('',(0.0,1.0,0.0));
#1103=DIRECTION('',(1.0,0.0,0.0));
#1104=DIRECTION('',(0.0,0.0,-1.0));
#1105=DIRECTION('',(-1.0,0.0,0.0));
#1106=DIRECTION('',(0.0,1.0,0.0));
#1107=DIRECTION('',(0.0,-1.0,0.0));
#1108=DIRECTION('',(0.0,0.0,1.0));
#1109=CARTESIAN_POINT('',(0.0,2.0,-2.543));
#1110=DIRECTION('',(0.0,0.0,-1.0));
#1111=DIRECTION('',(1.0,0.0,0.0));
#1112=DIRECTION('',(-0.0,-0.0,-1.0));
#1113=CARTESIAN_POINT('',(0.0,2.0,0.0));
#1114=DIRECTION('',(0.0,0.0,1.0));
#1115=DIRECTION('',(1.0,0.0,0.0));
#1116=CARTESIAN_POINT('',(0.0,2.0,0.0));
#1117=DIRECTION('',(0.0,0.0,1.0));
#1118=DIRECTION('',(1.0,0.0,0.0));
#1119=CARTESIAN_POINT('',(0.0,2.0,-2.543));
#1120=DIRECTION('',(0.0,0.0,-1.0));
#1121=DIRECTION('',(1.0,0.0,0.0));
#1122=DIRECTION('',(-0.0,-0.0,1.0));
#1123=CARTESIAN_POINT('',(0.0,2.0,-2.543));
#1124=DIRECTION('',(0.0,0.0,1.0));
#1125=DIRECTION('',(1.0,0.0,0.0));
#1126=DIRECTION('',(-0.0,0.0,-1.0));
#1127=CARTESIAN_POINT('',(0.0,2.0,0.0));
#1128=DIRECTION('',(0.0,0.0,1.0));
#1129=DIRECTION('',(1.0,0.0,0.0));
#1130=DIRECTION('',(0.0,0.0,1.0));
#1131=CARTESIAN_POINT('',(0.0,2.0,-2.543));
#1132=DIRECTION('',(0.0,0.0,1.0));
#1133=DIRECTION('',(1.0,0.0,0.0));
#1134=DIRECTION('',(-0.0,-0.0,-1.0));
#1135=CARTESIAN_POINT('',(0.0,2.0,0.0));
#1136=DIRECTION('',(0.0,0.0,1.0));
#1137=DIRECTION('',(1.0,0.0,0.0));
#1138=CARTESIAN_POINT('',(0.0,2.0,-2.543));
#1139=DIRECTION('',(0.0,0.0,1.0));
#1140=DIRECTION('',(1.0,0.0,0.0));
#1141=CARTESIAN_POINT('',(0.0,2.0,-2.543));
#1142=DIRECTION('',(0.0,0.0,1.0));
#1143=DIRECTION('',(1.0,0.0,0.0));
#1144=CARTESIAN_POINT('',(0.0,2.0,0.0));
#1145=DIRECTION('',(0.0,0.0,1.0));
#1146=DIRECTION('',(1.0,0.0,0.0));
#1147=CARTESIAN_POINT('',(0.0,2.0,0.0));
#1148=DIRECTION('',(0.0,0.0,1.0));
#1149=DIRECTION('',(1.0,0.0,0.0));
#1150=DIRECTION('',(-0.0,0.0,1.0));
#1151=CARTESIAN_POINT('',(0.0,2.0,-2.543));
#1152=DIRECTION('',(0.0,0.0,1.0));
#1153=DIRECTION('',(1.0,-3.0626842058625E-16,0.0));
#1154=DIRECTION('',(-0.0,0.0,-1.0));
#1155=CARTESIAN_POINT('',(0.0,2.0,-0.543));
#1156=DIRECTION('',(0.0,0.0,1.0));
#1157=DIRECTION('',(1.0,-3.0626842058625E-16,0.0));
#1158=DIRECTION('',(0.0,0.0,1.0));
#1159=CARTESIAN_POINT('',(0.0,2.0,-2.543));
#1160=DIRECTION('',(0.0,0.0,1.0));
#1161=DIRECTION('',(1.0,-3.0626842058625E-16,0.0));
#1162=DIRECTION('',(-0.0,-0.0,-1.0));
#1163=CARTESIAN_POINT('',(0.0,2.0,-0.543));
#1164=DIRECTION('',(0.0,0.0,1.0));
#1165=DIRECTION('',(1.0,-3.0626842058625E-16,0.0));
#1166=CARTESIAN_POINT('',(0.0,2.0,-2.543));
#1167=DIRECTION('',(0.0,0.0,1.0));
#1168=DIRECTION('',(1.0,-3.0626842058625E-16,0.0));
#1169=CARTESIAN_POINT('',(0.0,2.0,-2.543));
#1170=DIRECTION('',(0.0,0.0,1.0));
#1171=DIRECTION('',(1.0,-3.0626842058625E-16,0.0));
#1172=CARTESIAN_POINT('',(0.0,2.0,-0.543));
#1173=DIRECTION('',(0.0,0.0,1.0));
#1174=DIRECTION('',(1.0,-3.0626842058625E-16,0.0));
#1175=CARTESIAN_POINT('',(0.0,2.0,-0.543));
#1176=DIRECTION('',(0.0,0.0,1.0));
#1177=DIRECTION('',(1.0,-3.0626842058625E-16,0.0));
#1178=DIRECTION('',(0.0,1.0,0.0));
#1179=DIRECTION('',(-1.0,0.0,0.0));
#1180=DIRECTION('',(0.0,-1.0,0.0));
#1181=DIRECTION('',(1.0,0.0,0.0));
#1182=PRESENTATION_LAYER_ASSIGNMENT('Vacuum','Vacuum',(#61));
#1183=PRESENTATION_LAYER_ASSIGNMENT('PTFE (lossy)','PTFE (lossy)',(#50));
#1184=PRESENTATION_LAYER_ASSIGNMENT('Rogers RT-duroid 5880 (loss free)','Rogers RT-duroid 5880 (loss free)',(#44));
#1185=PRESENTATION_LAYER_ASSIGNMENT('Copper (pure)','Copper (pure)',(#42,#46,#48,#52));
ENDSEC;
END-ISO-10303-21;
